<svg xmlns="http://www.w3.org/2000/svg" viewBox="0 0 980 360" role="img" aria-labelledby="title desc">
  <title id="title">GastyConvoy</title>
  <desc id="desc">Logo GastyConvoy avec voiture sportive, panthere noire et signature</desc>
  <rect width="980" height="360" fill="#ffffff"/>
  <g transform="translate(134 42)">
    <path d="M86 126c28-62 88-92 184-92h154c78 0 142 27 198 81l64 62c8 8 2 22-9 22H88c-18 0-29-19-20-35l18-38Z" fill="#061a36"/>
    <path d="M167 80c31-26 76-39 135-39h116c44 0 84 12 122 36l-34 16H211l-44-13Z" fill="#0d3b68"/>
    <path d="M238 96h241c20 0 38 5 55 14l-41 19H206l32-33Z" fill="#123f70" opacity=".65"/>
    <path d="M95 151c59 12 116 18 170 18h402" fill="none" stroke="#d9f1ff" stroke-width="5" stroke-linecap="round" opacity=".95"/>
    <path d="M174 158c46 6 93 8 141 6l-116 39h-83l58-45Z" fill="#0b2b52"/>
    <path d="M346 157c68 3 138 2 211-2l-38 49H306l40-47Z" fill="#092444"/>
    <path d="M608 137c37 5 66 18 88 41h-74l-34-28c-7-6-1-15 20-13Z" fill="#eef8ff"/>
    <path d="M604 146c28 4 51 13 68 28h-45l-28-22c-4-3-3-7 5-6Z" fill="#092444"/>
    <path d="M245 208c36-34 77-65 124-93-44 56-75 91-93 105l-31-12Z" fill="#159447"/>
    <path d="M290 217c38-38 82-73 132-104-43 60-75 99-98 117l-34-13Z" fill="#2daa4f"/>
    <circle cx="185" cy="214" r="45" fill="#061a36" stroke="#ffffff" stroke-width="9"/>
    <circle cx="185" cy="214" r="27" fill="#16a34a"/>
    <circle cx="185" cy="214" r="13" fill="#0b2b52"/>
    <circle cx="514" cy="214" r="45" fill="#061a36" stroke="#ffffff" stroke-width="9"/>
    <circle cx="514" cy="214" r="27" fill="#16a34a"/>
    <circle cx="514" cy="214" r="13" fill="#0b2b52"/>
  </g>
  <g transform="translate(45 141)">
    <path d="M113 68c-23-13-55-9-74 9-18 17-23 43-10 63 12 20 39 29 66 21 18-5 35-21 43-40 8-20-1-42-25-53Z" fill="#061a36"/>
    <path d="M78 89c-27-18-60-7-69 23-4 13-2 27 6 39-18 5-28 17-30 35 20-15 39-21 57-17 35 8 76-14 89-48" fill="none" stroke="#0b2b52" stroke-width="16" stroke-linecap="round"/>
    <path d="M42 166c-10 22-30 29-55 22" stroke="#061a36" stroke-width="12" stroke-linecap="round" fill="none"/>
    <path d="M95 151c-7 24-1 43 19 57" stroke="#061a36" stroke-width="14" stroke-linecap="round" fill="none"/>
    <path d="M34 147c-15 22-14 42 2 60" stroke="#061a36" stroke-width="14" stroke-linecap="round" fill="none"/>
    <path d="M92 107c-16 4-28 13-36 26" stroke="#14365e" stroke-width="7" stroke-linecap="round" fill="none"/>
    <circle cx="82" cy="105" r="3.5" fill="#2daa4f"/>
    <circle cx="103" cy="102" r="3.5" fill="#2daa4f"/>
  </g>
  <text x="490" y="280" text-anchor="middle" font-family="Arial, Helvetica, sans-serif" font-size="78" font-weight="800" letter-spacing="0">
    <tspan fill="#061a36">Gasty</tspan><tspan fill="#078a3d">Convoy</tspan>
  </text>
  <text x="490" y="325" text-anchor="middle" font-family="Arial, Helvetica, sans-serif" font-size="31" font-style="italic" font-weight="600" fill="#061a36">Un convoyeur qu'on voit</text>
  <text x="490" y="354" text-anchor="middle" font-family="Arial, Helvetica, sans-serif" font-size="26" font-weight="800" fill="#061a36">FLEXIBILITE - SECURITE - SUIVI</text>
</svg>